<?xml version="1.0" standalone="no"?>
<!DOCTYPE svg PUBLIC "-//W3C//DTD SVG 20010904//EN"
 "http://www.w3.org/TR/2001/REC-SVG-20010904/DTD/svg10.dtd">
<svg version="1.0" xmlns="http://www.w3.org/2000/svg"
 width="1024.000000pt" height="754.000000pt" viewBox="0 0 1024.000000 754.000000"
 preserveAspectRatio="xMidYMid meet">

<g transform="translate(0.000000,754.000000) scale(0.100000,-0.100000)"
fill="#000000" stroke="none">
<path d="M5655 5527 c-99 -57 -277 -157 -395 -222 -302 -166 -363 -207 -411
-279 -74 -111 -72 -89 -79 -781 -6 -536 -9 -626 -23 -665 l-16 -45 4 40 c2 22
2 33 -1 24 -3 -11 -13 -15 -28 -12 -13 3 -33 0 -45 -6 -14 -8 -21 -8 -21 -1 0
5 -13 10 -28 10 -16 0 -39 9 -52 20 -13 11 -33 20 -45 20 -11 0 -27 6 -34 13
-10 10 -11 9 -6 -5 4 -10 17 -18 29 -19 16 -1 15 -3 -8 -9 -16 -5 -33 -7 -38
-4 -4 3 -27 6 -50 8 -24 2 -49 5 -57 7 -8 2 -17 -6 -22 -21 -4 -14 -7 301 -6
700 l2 725 27 73 c37 103 81 171 173 270 79 85 79 86 35 61 -53 -30 -351 -205
-496 -291 l-101 -60 -6 -541 c-3 -336 -9 -552 -15 -567 -6 -14 -11 -19 -11
-12 -1 7 -5 11 -10 8 -13 -8 -51 8 -81 34 -20 18 -33 21 -70 17 -30 -4 -38 -3
-25 3 16 7 11 9 -22 9 -23 1 -45 6 -48 11 -4 6 -40 27 -81 46 -62 30 -75 41
-83 68 -8 26 -9 18 -10 -44 -1 -151 93 -327 238 -441 59 -46 350 -197 796
-414 229 -111 857 -424 864 -431 2 -2 -12 -1 -32 1 -20 3 -39 0 -42 -5 -8 -13
-65 -13 -65 -1 0 5 -10 7 -21 4 -21 -6 -21 -7 -4 -20 11 -7 13 -13 6 -13 -20
0 -52 20 -46 30 3 4 -18 10 -45 12 -28 1 -50 0 -50 -3 0 -3 -24 -6 -52 -7 -42
-2 -57 -8 -73 -26 -17 -20 -24 -22 -42 -13 -13 5 -23 16 -23 24 0 7 -7 13 -16
13 -12 0 -15 -6 -10 -23 5 -21 3 -22 -37 -19 -23 2 -46 8 -52 13 -14 14 -25
11 -25 -6 0 -8 -4 -15 -10 -15 -5 0 -10 7 -10 15 0 9 -9 15 -23 15 -13 0 -34
11 -47 25 -31 33 -40 32 -40 -6 0 -31 0 -31 -25 -15 -13 9 -31 16 -40 16 -8 0
-15 6 -15 14 0 14 -75 36 -121 36 -11 0 -22 6 -25 14 -3 8 -13 13 -22 11 -9
-1 -11 0 -4 2 6 3 12 9 12 14 0 5 0 12 0 16 0 4 -15 7 -33 7 -23 1 -35 7 -42
24 -8 18 -18 22 -53 22 -25 0 -41 4 -37 9 3 6 -11 13 -32 17 -21 4 -43 10 -48
15 -6 4 -20 8 -30 8 -49 1 -54 4 -44 23 8 16 7 17 -15 9 -18 -8 -28 -5 -44 9
-12 12 -22 15 -24 9 -2 -7 -17 -3 -38 10 -19 11 -45 21 -56 21 -12 0 -27 7
-34 15 -10 12 -10 15 1 15 11 0 11 2 0 13 -10 10 -16 8 -28 -10 -9 -13 -24
-23 -34 -23 -26 0 -24 -10 9 -38 l27 -23 -32 17 c-18 10 -33 22 -33 27 0 5 -7
6 -16 3 -9 -3 -24 0 -35 8 -19 13 -18 14 12 20 17 3 42 3 55 0 l25 -6 -21 35
c-19 33 -25 36 -53 30 -18 -3 -34 -9 -37 -12 -3 -3 -14 -11 -25 -16 -16 -8
-25 -5 -49 17 l-28 28 23 9 c13 5 29 5 34 1 6 -4 21 -3 35 1 16 4 19 7 8 8
-10 1 -18 7 -18 14 0 8 -3 8 -9 -2 -8 -12 -13 -12 -36 3 -15 10 -36 19 -47 21
-11 3 -21 6 -22 7 -28 46 -40 59 -52 54 -10 -4 -14 2 -14 19 0 13 -5 27 -11
31 -19 11 -5 -366 16 -441 25 -91 98 -233 159 -307 83 -100 136 -134 626 -403
69 -37 217 -122 330 -189 551 -323 588 -340 740 -340 149 0 213 28 610 264
118 70 321 188 450 262 129 74 264 151 300 172 96 55 184 108 190 115 3 4 18
14 33 24 16 10 25 23 21 29 -5 7 -2 9 9 5 11 -4 14 -2 11 8 -3 8 -2 20 2 27 5
7 8 21 9 30 0 10 3 18 8 18 4 0 12 0 19 0 6 0 3 -7 -8 -15 -10 -8 -14 -15 -7
-15 6 0 15 5 18 10 4 6 11 8 16 4 12 -7 37 12 50 40 6 13 2 11 -11 -6 -12 -16
-26 -28 -32 -28 -6 0 -5 7 3 18 10 13 10 14 0 6 -9 -9 -20 -9 -42 -1 -16 6
-29 15 -29 19 0 12 18 19 25 8 8 -13 35 -13 35 0 0 6 -7 10 -15 10 -8 0 -15 4
-15 8 0 5 -11 14 -25 20 -21 10 -32 9 -55 -3 -34 -17 -60 -19 -60 -5 0 6 14
13 30 17 17 3 30 9 30 14 0 5 10 9 21 9 18 0 19 2 9 15 -18 22 -88 16 -74 -6
3 -5 1 -9 -5 -9 -6 0 -16 10 -23 23 l-12 22 -7 -25 c-6 -23 -7 -22 -8 9 -2 80
-11 14 -17 -125 -4 -82 -8 -151 -10 -153 -2 -2 -3 238 -3 535 1 350 4 518 10
479 11 -72 17 -90 18 -50 1 21 4 26 10 16 5 -8 16 -11 25 -8 9 4 28 1 42 -5
23 -11 24 -13 7 -19 -14 -6 -12 -8 10 -8 17 -1 27 -6 27 -16 0 -8 9 -15 19
-15 11 0 23 -4 26 -10 3 -5 14 -14 25 -20 15 -8 17 -7 13 11 -5 18 -3 19 13
10 10 -6 38 -15 62 -21 23 -6 42 -15 42 -21 0 -6 -9 -8 -20 -4 -11 3 -20 2
-20 -3 0 -17 30 -22 51 -9 17 10 22 9 33 -5 7 -10 16 -15 19 -11 4 3 7 -1 7
-10 0 -23 20 -22 21 1 0 14 2 14 9 -3 6 -13 9 14 9 77 1 78 -4 110 -22 162
-30 80 -106 178 -185 235 -33 24 -192 111 -353 193 -279 141 -622 317 -989
506 -163 84 -300 160 -310 171 -3 4 -17 14 -32 24 -29 18 -29 46 1 48 12 0 11
2 -4 8 -11 5 -21 4 -23 0 -2 -5 -13 -9 -25 -9 -20 1 -20 2 -5 11 10 5 15 16
12 24 -4 8 -1 15 5 15 6 0 11 -4 11 -9 0 -5 8 -7 19 -4 10 3 22 0 25 -6 9 -14
46 -14 46 0 0 6 -9 9 -19 6 -13 -3 -21 2 -25 15 -3 13 -10 18 -19 15 -21 -8
-54 17 -37 28 8 5 11 4 7 -2 -5 -7 6 -11 27 -10 19 0 33 4 30 8 -7 12 25 31
38 23 9 -5 8 -2 -2 10 -13 16 -12 20 5 32 10 8 28 12 39 9 12 -3 15 -2 8 1
-18 8 85 67 103 60 8 -3 12 0 10 7 -2 7 24 29 59 49 l64 37 223 -113 c123 -62
316 -160 429 -218 591 -305 810 -418 853 -443 l47 -27 0 24 c0 81 -23 256 -41
314 -22 72 -70 169 -96 194 -11 11 -10 6 3 -15 l18 -30 -24 20 -24 20 17 -27
c10 -16 13 -29 7 -33 -6 -3 -10 0 -10 8 0 8 -6 20 -14 26 -12 10 -13 9 -9 -8
5 -19 -3 -26 -92 -77 -11 -7 -19 -19 -17 -27 2 -14 -2 -15 -29 -5 -27 9 -34 8
-44 -5 -7 -10 -20 -17 -29 -17 -34 0 -220 96 -848 437 -177 97 -172 95 -194
78 -11 -8 -25 -10 -34 -5 -18 10 -70 1 -70 -11 0 -5 -4 -9 -10 -9 -5 0 -10 5
-10 10 0 15 50 60 66 60 18 0 18 15 -1 30 -21 18 -19 32 4 25 11 -3 28 -2 38
4 10 5 27 13 38 17 18 7 17 8 -7 12 -43 5 -33 22 12 22 22 0 40 5 40 11 0 7
11 8 32 3 30 -6 32 -5 18 11 -14 17 -13 18 13 13 15 -3 30 -1 33 3 3 5 16 9
29 9 13 0 36 5 50 12 19 8 31 8 51 -1 21 -9 40 -9 81 0 31 6 51 15 47 19 -5 5
-94 57 -199 117 -104 60 -201 116 -215 126 -25 16 -28 15 -205 -86z m-46 -213
c12 -15 21 -37 21 -49 0 -34 -37 -75 -68 -75 -62 1 -94 74 -56 128 22 32 76
30 103 -4z m198 -196 c-2 -7 -12 -12 -22 -10 -9 2 -14 -1 -11 -7 7 -10 -32
-27 -41 -17 -4 3 -1 6 5 6 7 0 21 9 32 20 22 22 44 27 37 8z m-407 -263 c-7
-8 -20 -15 -29 -15 -11 1 -8 5 9 15 32 18 35 18 20 0z m1570 -230 c10 -13 9
-15 -11 -15 -18 0 -20 3 -10 9 11 7 10 10 -5 14 -14 4 -15 5 -3 6 9 0 22 -6
29 -14z m-2769 -33 c47 -39 16 -122 -47 -122 -14 0 -32 12 -48 33 -31 41 -32
47 -5 81 25 31 66 35 100 8z m1370 -315 c201 -77 356 -249 390 -432 17 -90 6
-266 -21 -345 -39 -116 -149 -245 -265 -311 -95 -55 -169 -73 -290 -73 -185 0
-320 57 -444 190 -105 113 -148 216 -158 379 -7 117 8 189 63 304 62 132 205
250 362 298 106 32 264 28 363 -10z m426 -469 c-3 -8 -6 -5 -6 6 -1 11 2 17 5
13 3 -3 4 -12 1 -19z m0 -150 c-2 -24 -4 -5 -4 42 0 47 2 66 4 43 2 -24 2 -62
0 -85z m-4 -320 c-3 -150 -7 -275 -9 -277 -7 -7 -4 479 3 517 3 17 6 32 8 32
1 0 1 -123 -2 -272z m683 236 c30 -32 30 -45 -2 -83 -33 -39 -70 -41 -101 -4
-29 33 -29 60 -1 90 29 31 74 30 104 -3z m299 -104 c3 -5 1 -10 -4 -10 -6 0
-11 5 -11 10 0 6 2 10 4 10 3 0 8 -4 11 -10z m-3382 -257 c-7 -2 -19 -2 -25 0
-7 3 -2 5 12 5 14 0 19 -2 13 -5z m28 -29 c17 -8 29 -18 26 -21 -3 -2 -16 1
-29 8 -12 7 -29 14 -36 15 -21 4 -27 14 -8 14 9 0 31 -7 47 -16z m340 -148
c-18 -10 -20 -15 -10 -19 8 -3 9 -6 3 -6 -5 -1 -19 6 -30 15 -10 8 -13 13 -7
9 7 -3 21 -1 30 4 10 6 23 10 28 10 6 0 -1 -6 -14 -13z m2026 -309 c-1 -45 -3
-5 -3 88 0 94 2 130 3 82 2 -48 2 -125 0 -170z m-1700 167 c-3 -3 -12 -4 -19
-1 -8 3 -5 6 6 6 11 1 17 -2 13 -5z m2697 -233 c3 -5 -1 -12 -10 -15 -8 -3
-13 -2 -9 3 3 5 -1 12 -7 14 -8 4 -7 6 4 6 9 1 19 -3 22 -8z m-2 -53 c-7 -7
-12 -8 -12 -2 0 14 12 26 19 19 2 -3 -1 -11 -7 -17z m-22 -18 c0 -5 -8 -10
-17 -10 -15 0 -16 2 -3 10 19 12 20 12 20 0z"/>
<path d="M4156 4592 c-3 -5 1 -9 9 -9 8 0 12 4 9 9 -3 4 -7 8 -9 8 -2 0 -6 -4
-9 -8z"/>
<path d="M6080 5290 c0 -5 5 -10 11 -10 5 0 7 5 4 10 -3 6 -8 10 -11 10 -2 0
-4 -4 -4 -10z"/>
<path d="M5710 5030 c-9 -6 -10 -10 -3 -10 6 0 15 5 18 10 8 12 4 12 -15 0z"/>
<path d="M5515 4920 c-3 -6 1 -7 9 -4 18 7 21 14 7 14 -6 0 -13 -4 -16 -10z"/>
<path d="M7048 4743 c7 -3 16 -2 19 1 4 3 -2 6 -13 5 -11 0 -14 -3 -6 -6z"/>
<path d="M6943 4687 c-4 -8 -17 -17 -28 -20 -15 -3 -13 -5 8 -6 16 -1 30 5 34
14 8 21 -3 30 -14 12z"/>
<path d="M6888 4633 c7 -3 16 -2 19 1 4 3 -2 6 -13 5 -11 0 -14 -3 -6 -6z"/>
<path d="M6420 4441 c0 -10 30 -24 37 -17 3 2 -5 9 -16 16 -12 6 -21 7 -21 1z"/>
<path d="M3688 4053 c6 -2 18 -2 25 0 6 3 1 5 -13 5 -14 0 -19 -2 -12 -5z"/>
<path d="M3840 3411 c0 -11 -5 -23 -11 -27 -8 -4 -7 -9 2 -15 8 -5 16 -9 19
-9 12 0 29 40 24 55 -9 22 -34 19 -34 -4z"/>
<path d="M7046 3238 c-22 -31 -20 -64 4 -88 24 -24 48 -25 78 -4 26 18 30 74
6 98 -23 24 -70 20 -88 -6z"/>
<path d="M4320 3125 c0 -31 3 -35 25 -35 25 0 37 19 13 21 -7 0 -2 5 12 12 25
11 25 11 -10 15 -29 4 -32 6 -15 12 19 8 19 9 -2 9 -20 1 -23 -4 -23 -34z"/>
<path d="M3750 3120 c-8 -5 -10 -10 -5 -10 6 0 17 5 25 10 8 5 11 10 5 10 -5
0 -17 -5 -25 -10z"/>
<path d="M5210 2840 c0 -5 5 -10 10 -10 6 0 10 5 10 10 0 6 -4 10 -10 10 -5 0
-10 -4 -10 -10z"/>
<path d="M5300 2835 c-14 -8 -20 -14 -15 -14 6 0 21 6 35 14 14 8 21 14 15 14
-5 0 -21 -6 -35 -14z"/>
<path d="M7019 2600 c-13 -10 -19 -19 -13 -20 6 0 19 9 29 20 23 26 14 26 -16
0z"/>
</g>
</svg>
